<?xml version="1.0" standalone="no"?>
<!DOCTYPE svg PUBLIC "-//W3C//DTD SVG 20010904//EN"
 "http://www.w3.org/TR/2001/REC-SVG-20010904/DTD/svg10.dtd">
<svg version="1.0" xmlns="http://www.w3.org/2000/svg"
 width="1254.000000pt" height="1254.000000pt" viewBox="0 0 1254.000000 1254.000000"
 preserveAspectRatio="xMidYMid meet">
<metadata>
Created by potrace 1.16, written by Peter Selinger 2001-2019
</metadata>
<g transform="translate(0.000000,1254.000000) scale(0.100000,-0.100000)"
fill="#017959" stroke="none">
<path d="M5905 12258 c-431 -31 -1004 -145 -1405 -278 -906 -302 -1763 -807
-2374 -1401 l-130 -126 84 -94 c132 -150 278 -337 447 -574 212 -297 369 -506
533 -710 75 -93 156 -198 179 -232 145 -213 101 -411 -125 -562 -90 -60 -174
-101 -457 -221 -118 -50 -239 -106 -268 -123 -102 -61 -139 -152 -104 -257 14
-42 39 -74 125 -166 87 -91 113 -125 130 -171 29 -76 25 -177 -9 -246 -28 -57
-107 -147 -166 -187 -63 -43 -204 -112 -359 -175 -351 -141 -486 -255 -486
-411 0 -148 145 -289 497 -484 204 -113 267 -196 268 -350 0 -75 -4 -93 -31
-150 -18 -37 -60 -97 -99 -140 -94 -104 -125 -172 -125 -275 0 -72 7 -98 65
-269 77 -223 94 -323 76 -442 -38 -254 -213 -446 -481 -525 -65 -19 -105 -22
-300 -26 -153 -3 -259 0 -333 10 -59 7 -106 11 -105 8 19 -38 139 -257 202
-366 527 -920 1238 -1652 2121 -2187 1235 -748 2717 -1005 4125 -717 1297 266
2413 920 3316 1944 569 646 1037 1497 1273 2316 74 257 156 654 163 788 l3 54
-54 18 c-148 51 -315 162 -435 289 -70 74 -185 225 -294 385 -126 185 -235
291 -367 354 -100 49 -165 64 -270 63 -60 0 -102 -7 -157 -26 -136 -45 -188
-84 -398 -295 -107 -108 -235 -227 -285 -264 -108 -82 -300 -179 -410 -207
-251 -63 -527 -36 -760 74 l-92 43 -11 -126 c-34 -359 -122 -686 -236 -873
-54 -89 -132 -168 -206 -207 -60 -32 -79 -36 -298 -55 -70 -6 -69 -10 -16 64
242 339 366 843 366 1490 1 392 -50 743 -154 1070 -51 160 -128 328 -221 480
l-46 75 51 3 c99 6 247 -15 304 -43 115 -56 221 -218 308 -472 76 -222 138
-549 152 -803 4 -63 10 -124 15 -136 8 -24 143 -107 246 -153 105 -46 176 -62
294 -68 86 -4 120 -2 188 16 188 47 281 110 526 357 209 209 307 288 439 353
138 68 254 94 416 93 150 0 228 -16 366 -73 153 -64 332 -204 457 -357 30 -37
105 -139 167 -227 62 -88 137 -189 168 -223 67 -77 169 -161 238 -195 l52 -26
7 147 c4 81 5 244 1 362 -33 1128 -363 2209 -955 3130 -319 496 -733 965
-1186 1344 -1080 901 -2399 1382 -3773 1375 -147 -1 -321 -6 -387 -11z m-7
-4183 c681 -57 668 -55 714 -109 28 -33 123 -222 167 -334 267 -669 304 -1755
87 -2510 -79 -272 -200 -504 -291 -558 -53 -31 -31 -28 -865 -94 -531 -42
-646 -49 -702 -40 -366 56 -598 418 -702 1094 -50 321 -66 661 -47 976 58 943
318 1536 715 1626 79 18 134 15 924 -51z m1337 -120 c199 -19 279 -31 305 -44
125 -63 289 -464 361 -879 124 -723 64 -1576 -145 -2069 -83 -195 -163 -297
-251 -322 -46 -12 -572 -64 -604 -59 -20 3 -17 9 29 72 64 88 170 302 210 425
65 200 113 436 142 696 17 160 18 768 0 930 -56 510 -169 886 -351 1168 -34
51 -61 96 -61 100 0 9 33 15 65 11 17 -2 152 -15 300 -29z m-3639 -809 c414
-309 394 -294 394 -314 0 -22 -73 -152 -97 -175 -19 -16 -26 -15 -179 52 -359
155 -689 304 -697 315 -18 25 1 129 37 200 61 124 139 196 192 176 12 -5 170
-119 350 -254z m-638 -656 c268 -33 570 -70 672 -82 l185 -23 3 -101 c2 -79
-1 -105 -12 -116 -11 -12 -60 -16 -213 -22 -188 -6 -850 -31 -1052 -39 -80 -4
-96 -2 -112 14 -62 62 -54 344 11 409 11 11 22 20 25 20 4 0 225 -27 493 -60z
m954 -691 c20 -45 33 -90 31 -100 -3 -12 -137 -103 -342 -232 -506 -321 -516
-327 -543 -327 -61 0 -165 160 -188 286 -17 99 -15 101 161 168 85 33 201 77
259 99 334 129 556 205 571 197 9 -5 32 -46 51 -91z"/>
<path d="M4990 7848 c-375 -185 -599 -1343 -434 -2248 97 -531 301 -893 518
-917 139 -16 292 128 402 378 84 190 154 469 191 759 24 194 24 701 0 895 -76
600 -256 1032 -471 1133 -62 30 -146 29 -206 0z"/>
</g>
</svg>
